<svg xmlns="http://www.w3.org/2000/svg" width="800" height="450" viewBox="0 0 800 450">
  <defs>
    <linearGradient id="bg" x1="0%" y1="0%" x2="100%" y2="100%">
      <stop offset="0%" stop-color="#92400e"/>
      <stop offset="100%" stop-color="#f59e0b" stop-opacity="0.7"/>
    </linearGradient>
  </defs>
  <rect width="800" height="450" fill="url(#bg)"/>
  <rect width="800" height="450" fill="#000" opacity="0.3"/>
  <line x1="0" y1="90" x2="800" y2="90" stroke="rgba(255,255,255,0.05)" stroke-width="1"/>
  <line x1="0" y1="180" x2="800" y2="180" stroke="rgba(255,255,255,0.05)" stroke-width="1"/>
  <line x1="0" y1="270" x2="800" y2="270" stroke="rgba(255,255,255,0.05)" stroke-width="1"/>
  <line x1="0" y1="360" x2="800" y2="360" stroke="rgba(255,255,255,0.05)" stroke-width="1"/>
  <line x1="160" y1="0" x2="160" y2="450" stroke="rgba(255,255,255,0.05)" stroke-width="1"/>
  <line x1="320" y1="0" x2="320" y2="450" stroke="rgba(255,255,255,0.05)" stroke-width="1"/>
  <line x1="480" y1="0" x2="480" y2="450" stroke="rgba(255,255,255,0.05)" stroke-width="1"/>
  <line x1="640" y1="0" x2="640" y2="450" stroke="rgba(255,255,255,0.05)" stroke-width="1"/>
  <circle cx="650" cy="80" r="120" fill="#f59e0b" opacity="0.15"/>
  <circle cx="150" cy="380" r="80" fill="#f59e0b" opacity="0.1"/>
  <text x="400" y="195" font-family="system-ui" font-size="68" text-anchor="middle" dominant-baseline="middle" opacity="0.6">🧠</text>
  <text x="400" y="278" font-family="Space Grotesk,system-ui,sans-serif" font-size="26" font-weight="700" text-anchor="middle" fill="white" opacity="0.9">Mental Health Support Chatbot</text>
  <text x="400" y="316" font-family="system-ui,sans-serif" font-size="13" text-anchor="middle" fill="white" opacity="0.5">Python · NLP Fundamentals · Web UI  |  Educational Project</text>
  <rect x="0" y="418" width="800" height="32" fill="rgba(0,0,0,0.4)"/>
  <text x="400" y="438" font-family="system-ui" font-size="11" text-anchor="middle" fill="white" opacity="0.35">Replace with screenshot → /public/images/project-mental-health.png</text>
</svg>
